<mxfile host="app.diagrams.net" modified="2023-11-14T16:21:20.916Z" agent="Mozilla/5.0 (Windows NT 10.0; Win64; x64) AppleWebKit/537.36 (KHTML, like Gecko) Chrome/119.0.0.0 Safari/537.36" etag="QqK7RVvgqIpIwQbigVjd" version="22.1.0" type="device">
  <diagram name="Halaman-1" id="VN_u8_llgL_SP_LheHiA">
    <mxGraphModel dx="1434" dy="784" grid="1" gridSize="10" guides="1" tooltips="1" connect="1" arrows="1" fold="1" page="1" pageScale="1" pageWidth="827" pageHeight="1169" math="0" shadow="0">
      <root>
        <mxCell id="0" />
        <mxCell id="1" parent="0" />
        <mxCell id="pFfu2BRyABPbFizgk6xo-19" value="PENGGUNA" style="rounded=0;whiteSpace=wrap;html=1;" parent="1" vertex="1">
          <mxGeometry x="80" y="80" width="120" height="60" as="geometry" />
        </mxCell>
        <mxCell id="pFfu2BRyABPbFizgk6xo-31" style="edgeStyle=orthogonalEdgeStyle;rounded=0;orthogonalLoop=1;jettySize=auto;html=1;entryX=0.5;entryY=0;entryDx=0;entryDy=0;" parent="1" source="pFfu2BRyABPbFizgk6xo-20" target="pFfu2BRyABPbFizgk6xo-30" edge="1">
          <mxGeometry relative="1" as="geometry" />
        </mxCell>
        <mxCell id="pFfu2BRyABPbFizgk6xo-32" value="Data kereta&lt;br&gt;data penumpang" style="edgeLabel;html=1;align=center;verticalAlign=middle;resizable=0;points=[];" parent="pFfu2BRyABPbFizgk6xo-31" vertex="1" connectable="0">
          <mxGeometry x="-0.0909" y="-1" relative="1" as="geometry">
            <mxPoint as="offset" />
          </mxGeometry>
        </mxCell>
        <mxCell id="pFfu2BRyABPbFizgk6xo-20" value="1&lt;br&gt;Memeriksa&lt;br&gt;Kereta" style="ellipse;whiteSpace=wrap;html=1;aspect=fixed;" parent="1" vertex="1">
          <mxGeometry x="400" y="70" width="80" height="80" as="geometry" />
        </mxCell>
        <mxCell id="pFfu2BRyABPbFizgk6xo-21" value="" style="endArrow=classic;html=1;rounded=0;exitX=1;exitY=0.25;exitDx=0;exitDy=0;" parent="1" source="pFfu2BRyABPbFizgk6xo-19" edge="1">
          <mxGeometry width="50" height="50" relative="1" as="geometry">
            <mxPoint x="250" y="120" as="sourcePoint" />
            <mxPoint x="390" y="95" as="targetPoint" />
          </mxGeometry>
        </mxCell>
        <mxCell id="pFfu2BRyABPbFizgk6xo-22" value="Data Penumpang" style="edgeLabel;html=1;align=center;verticalAlign=middle;resizable=0;points=[];" parent="pFfu2BRyABPbFizgk6xo-21" vertex="1" connectable="0">
          <mxGeometry x="-0.0761" y="3" relative="1" as="geometry">
            <mxPoint as="offset" />
          </mxGeometry>
        </mxCell>
        <mxCell id="pFfu2BRyABPbFizgk6xo-24" value="" style="endArrow=classic;html=1;rounded=0;entryX=1;entryY=0.75;entryDx=0;entryDy=0;" parent="1" target="pFfu2BRyABPbFizgk6xo-19" edge="1">
          <mxGeometry width="50" height="50" relative="1" as="geometry">
            <mxPoint x="390" y="125" as="sourcePoint" />
            <mxPoint x="410" y="130" as="targetPoint" />
          </mxGeometry>
        </mxCell>
        <mxCell id="pFfu2BRyABPbFizgk6xo-25" value="Info Tiket" style="edgeLabel;html=1;align=center;verticalAlign=middle;resizable=0;points=[];" parent="pFfu2BRyABPbFizgk6xo-24" vertex="1" connectable="0">
          <mxGeometry x="0.0435" y="1" relative="1" as="geometry">
            <mxPoint as="offset" />
          </mxGeometry>
        </mxCell>
        <mxCell id="pFfu2BRyABPbFizgk6xo-27" style="edgeStyle=orthogonalEdgeStyle;rounded=0;orthogonalLoop=1;jettySize=auto;html=1;entryX=1;entryY=0.5;entryDx=0;entryDy=0;" parent="1" source="pFfu2BRyABPbFizgk6xo-26" target="pFfu2BRyABPbFizgk6xo-20" edge="1">
          <mxGeometry relative="1" as="geometry" />
        </mxCell>
        <mxCell id="pFfu2BRyABPbFizgk6xo-28" value="Data kereta" style="edgeLabel;html=1;align=center;verticalAlign=middle;resizable=0;points=[];" parent="pFfu2BRyABPbFizgk6xo-27" vertex="1" connectable="0">
          <mxGeometry x="0.1607" y="-1" relative="1" as="geometry">
            <mxPoint x="21" y="1" as="offset" />
          </mxGeometry>
        </mxCell>
        <mxCell id="pFfu2BRyABPbFizgk6xo-26" value="Data kereta" style="shape=process;whiteSpace=wrap;html=1;backgroundOutline=1;" parent="1" vertex="1">
          <mxGeometry x="650" y="80" width="120" height="60" as="geometry" />
        </mxCell>
        <mxCell id="pFfu2BRyABPbFizgk6xo-35" style="edgeStyle=orthogonalEdgeStyle;rounded=0;orthogonalLoop=1;jettySize=auto;html=1;entryX=0.5;entryY=0;entryDx=0;entryDy=0;" parent="1" source="pFfu2BRyABPbFizgk6xo-30" target="pFfu2BRyABPbFizgk6xo-34" edge="1">
          <mxGeometry relative="1" as="geometry" />
        </mxCell>
        <mxCell id="pFfu2BRyABPbFizgk6xo-30" value="2&lt;br&gt;Memeriksa &amp;amp;&lt;br&gt;menambah&lt;br&gt;data&amp;nbsp;&lt;br&gt;pesanan" style="ellipse;whiteSpace=wrap;html=1;aspect=fixed;" parent="1" vertex="1">
          <mxGeometry x="390" y="260" width="100" height="100" as="geometry" />
        </mxCell>
        <mxCell id="pFfu2BRyABPbFizgk6xo-49" style="edgeStyle=orthogonalEdgeStyle;rounded=0;orthogonalLoop=1;jettySize=auto;html=1;" parent="1" source="pFfu2BRyABPbFizgk6xo-33" edge="1">
          <mxGeometry relative="1" as="geometry">
            <Array as="points">
              <mxPoint x="1020" y="310" />
            </Array>
            <mxPoint x="1020" y="550" as="targetPoint" />
          </mxGeometry>
        </mxCell>
        <mxCell id="pFfu2BRyABPbFizgk6xo-50" value="Data&lt;br&gt;Penumpang" style="edgeLabel;html=1;align=center;verticalAlign=middle;resizable=0;points=[];" parent="pFfu2BRyABPbFizgk6xo-49" vertex="1" connectable="0">
          <mxGeometry x="0.8158" y="-1" relative="1" as="geometry">
            <mxPoint x="1" y="-102" as="offset" />
          </mxGeometry>
        </mxCell>
        <mxCell id="pFfu2BRyABPbFizgk6xo-33" value="Data Penumpang" style="shape=process;whiteSpace=wrap;html=1;backgroundOutline=1;" parent="1" vertex="1">
          <mxGeometry x="640" y="280" width="120" height="60" as="geometry" />
        </mxCell>
        <mxCell id="pFfu2BRyABPbFizgk6xo-38" style="edgeStyle=orthogonalEdgeStyle;rounded=0;orthogonalLoop=1;jettySize=auto;html=1;" parent="1" source="pFfu2BRyABPbFizgk6xo-34" edge="1">
          <mxGeometry relative="1" as="geometry">
            <mxPoint x="710" y="140" as="targetPoint" />
            <Array as="points">
              <mxPoint x="820" y="490" />
              <mxPoint x="820" y="170" />
              <mxPoint x="710" y="170" />
            </Array>
          </mxGeometry>
        </mxCell>
        <mxCell id="pFfu2BRyABPbFizgk6xo-39" value="Data kereta yang dipesan" style="edgeLabel;html=1;align=center;verticalAlign=middle;resizable=0;points=[];" parent="pFfu2BRyABPbFizgk6xo-38" vertex="1" connectable="0">
          <mxGeometry x="-0.675" y="-1" relative="1" as="geometry">
            <mxPoint as="offset" />
          </mxGeometry>
        </mxCell>
        <mxCell id="pFfu2BRyABPbFizgk6xo-41" style="edgeStyle=orthogonalEdgeStyle;rounded=0;orthogonalLoop=1;jettySize=auto;html=1;entryX=0;entryY=0.75;entryDx=0;entryDy=0;" parent="1" source="pFfu2BRyABPbFizgk6xo-34" target="pFfu2BRyABPbFizgk6xo-40" edge="1">
          <mxGeometry relative="1" as="geometry">
            <Array as="points">
              <mxPoint x="440" y="605" />
            </Array>
          </mxGeometry>
        </mxCell>
        <mxCell id="pFfu2BRyABPbFizgk6xo-42" value="Data transaksi" style="edgeLabel;html=1;align=center;verticalAlign=middle;resizable=0;points=[];" parent="pFfu2BRyABPbFizgk6xo-41" vertex="1" connectable="0">
          <mxGeometry x="0.2143" y="-4" relative="1" as="geometry">
            <mxPoint as="offset" />
          </mxGeometry>
        </mxCell>
        <mxCell id="pFfu2BRyABPbFizgk6xo-53" style="edgeStyle=orthogonalEdgeStyle;rounded=0;orthogonalLoop=1;jettySize=auto;html=1;" parent="1" source="pFfu2BRyABPbFizgk6xo-34" edge="1">
          <mxGeometry relative="1" as="geometry">
            <mxPoint x="140" y="150" as="targetPoint" />
          </mxGeometry>
        </mxCell>
        <mxCell id="pFfu2BRyABPbFizgk6xo-54" value="Tiket" style="edgeLabel;html=1;align=center;verticalAlign=middle;resizable=0;points=[];" parent="pFfu2BRyABPbFizgk6xo-53" vertex="1" connectable="0">
          <mxGeometry x="-0.5377" y="-3" relative="1" as="geometry">
            <mxPoint y="1" as="offset" />
          </mxGeometry>
        </mxCell>
        <mxCell id="pFfu2BRyABPbFizgk6xo-34" value="3&lt;br&gt;Transaksi&lt;br&gt;pemesanan&lt;br&gt;tiket" style="ellipse;whiteSpace=wrap;html=1;aspect=fixed;" parent="1" vertex="1">
          <mxGeometry x="390" y="440" width="100" height="100" as="geometry" />
        </mxCell>
        <mxCell id="pFfu2BRyABPbFizgk6xo-36" value="" style="endArrow=classic;startArrow=classic;html=1;rounded=0;exitX=1;exitY=0.5;exitDx=0;exitDy=0;" parent="1" source="pFfu2BRyABPbFizgk6xo-30" edge="1">
          <mxGeometry width="50" height="50" relative="1" as="geometry">
            <mxPoint x="590" y="360" as="sourcePoint" />
            <mxPoint x="640" y="310" as="targetPoint" />
          </mxGeometry>
        </mxCell>
        <mxCell id="pFfu2BRyABPbFizgk6xo-37" value="Data penumpang" style="edgeLabel;html=1;align=center;verticalAlign=middle;resizable=0;points=[];" parent="pFfu2BRyABPbFizgk6xo-36" vertex="1" connectable="0">
          <mxGeometry x="0.0227" relative="1" as="geometry">
            <mxPoint as="offset" />
          </mxGeometry>
        </mxCell>
        <mxCell id="pFfu2BRyABPbFizgk6xo-59" style="edgeStyle=orthogonalEdgeStyle;rounded=0;orthogonalLoop=1;jettySize=auto;html=1;entryX=0.5;entryY=0;entryDx=0;entryDy=0;" parent="1" source="pFfu2BRyABPbFizgk6xo-40" target="pFfu2BRyABPbFizgk6xo-58" edge="1">
          <mxGeometry relative="1" as="geometry" />
        </mxCell>
        <mxCell id="pFfu2BRyABPbFizgk6xo-40" value="Tiket" style="shape=process;whiteSpace=wrap;html=1;backgroundOutline=1;" parent="1" vertex="1">
          <mxGeometry x="570" y="560" width="120" height="60" as="geometry" />
        </mxCell>
        <mxCell id="pFfu2BRyABPbFizgk6xo-47" style="edgeStyle=orthogonalEdgeStyle;rounded=0;orthogonalLoop=1;jettySize=auto;html=1;entryX=1;entryY=0.5;entryDx=0;entryDy=0;" parent="1" source="pFfu2BRyABPbFizgk6xo-43" target="pFfu2BRyABPbFizgk6xo-46" edge="1">
          <mxGeometry relative="1" as="geometry" />
        </mxCell>
        <mxCell id="pFfu2BRyABPbFizgk6xo-48" value="Laporan Penjualan&amp;nbsp;" style="edgeLabel;html=1;align=center;verticalAlign=middle;resizable=0;points=[];" parent="pFfu2BRyABPbFizgk6xo-47" vertex="1" connectable="0">
          <mxGeometry x="0.2024" y="-4" relative="1" as="geometry">
            <mxPoint as="offset" />
          </mxGeometry>
        </mxCell>
        <mxCell id="pFfu2BRyABPbFizgk6xo-43" value="4&lt;br&gt;Laporan" style="ellipse;whiteSpace=wrap;html=1;aspect=fixed;" parent="1" vertex="1">
          <mxGeometry x="580" y="910" width="100" height="100" as="geometry" />
        </mxCell>
        <mxCell id="pFfu2BRyABPbFizgk6xo-46" value="Pimpinan&amp;nbsp;&lt;br&gt;PT.KAI" style="rounded=0;whiteSpace=wrap;html=1;" parent="1" vertex="1">
          <mxGeometry x="140" y="930" width="120" height="60" as="geometry" />
        </mxCell>
        <mxCell id="pFfu2BRyABPbFizgk6xo-51" style="edgeStyle=orthogonalEdgeStyle;rounded=0;orthogonalLoop=1;jettySize=auto;html=1;exitX=1;exitY=0.5;exitDx=0;exitDy=0;" parent="1" source="pFfu2BRyABPbFizgk6xo-26" edge="1">
          <mxGeometry relative="1" as="geometry">
            <mxPoint x="1070" y="550" as="targetPoint" />
            <Array as="points">
              <mxPoint x="1070" y="110" />
            </Array>
          </mxGeometry>
        </mxCell>
        <mxCell id="pFfu2BRyABPbFizgk6xo-52" value="Data kereta" style="edgeLabel;html=1;align=center;verticalAlign=middle;resizable=0;points=[];" parent="pFfu2BRyABPbFizgk6xo-51" vertex="1" connectable="0">
          <mxGeometry x="0.8308" relative="1" as="geometry">
            <mxPoint as="offset" />
          </mxGeometry>
        </mxCell>
        <mxCell id="pFfu2BRyABPbFizgk6xo-60" style="edgeStyle=orthogonalEdgeStyle;rounded=0;orthogonalLoop=1;jettySize=auto;html=1;entryX=0.5;entryY=0;entryDx=0;entryDy=0;" parent="1" source="pFfu2BRyABPbFizgk6xo-58" target="pFfu2BRyABPbFizgk6xo-26" edge="1">
          <mxGeometry relative="1" as="geometry">
            <Array as="points">
              <mxPoint x="920" y="730" />
              <mxPoint x="920" y="30" />
              <mxPoint x="710" y="30" />
            </Array>
          </mxGeometry>
        </mxCell>
        <mxCell id="pFfu2BRyABPbFizgk6xo-61" value="Data kereta" style="edgeLabel;html=1;align=center;verticalAlign=middle;resizable=0;points=[];" parent="pFfu2BRyABPbFizgk6xo-60" vertex="1" connectable="0">
          <mxGeometry x="-0.8935" relative="1" as="geometry">
            <mxPoint x="46" as="offset" />
          </mxGeometry>
        </mxCell>
        <mxCell id="pFfu2BRyABPbFizgk6xo-63" style="edgeStyle=orthogonalEdgeStyle;rounded=0;orthogonalLoop=1;jettySize=auto;html=1;entryX=0.5;entryY=0;entryDx=0;entryDy=0;" parent="1" source="pFfu2BRyABPbFizgk6xo-58" target="pFfu2BRyABPbFizgk6xo-43" edge="1">
          <mxGeometry relative="1" as="geometry" />
        </mxCell>
        <mxCell id="pFfu2BRyABPbFizgk6xo-64" value="Membuat" style="edgeLabel;html=1;align=center;verticalAlign=middle;resizable=0;points=[];" parent="pFfu2BRyABPbFizgk6xo-63" vertex="1" connectable="0">
          <mxGeometry x="0.0066" y="-3" relative="1" as="geometry">
            <mxPoint as="offset" />
          </mxGeometry>
        </mxCell>
        <mxCell id="pFfu2BRyABPbFizgk6xo-58" value="ADMIN" style="rounded=0;whiteSpace=wrap;html=1;" parent="1" vertex="1">
          <mxGeometry x="570" y="720" width="120" height="60" as="geometry" />
        </mxCell>
        <mxCell id="Dc7FnCPN3eeVJpGloo9k-3" style="edgeStyle=orthogonalEdgeStyle;rounded=0;orthogonalLoop=1;jettySize=auto;html=1;entryX=1;entryY=0.75;entryDx=0;entryDy=0;" parent="1" source="Dc7FnCPN3eeVJpGloo9k-1" target="pFfu2BRyABPbFizgk6xo-58" edge="1">
          <mxGeometry relative="1" as="geometry">
            <Array as="points">
              <mxPoint x="1050" y="765" />
            </Array>
          </mxGeometry>
        </mxCell>
        <mxCell id="Dc7FnCPN3eeVJpGloo9k-4" value="Memberi&lt;br&gt;laporan&lt;br&gt;pengelolaan" style="edgeLabel;html=1;align=center;verticalAlign=middle;resizable=0;points=[];" parent="Dc7FnCPN3eeVJpGloo9k-3" vertex="1" connectable="0">
          <mxGeometry x="0.2545" y="1" relative="1" as="geometry">
            <mxPoint as="offset" />
          </mxGeometry>
        </mxCell>
        <mxCell id="Dc7FnCPN3eeVJpGloo9k-1" value="5&lt;br&gt;Pengelolaan" style="ellipse;whiteSpace=wrap;html=1;aspect=fixed;" parent="1" vertex="1">
          <mxGeometry x="1000" y="550" width="100" height="100" as="geometry" />
        </mxCell>
      </root>
    </mxGraphModel>
  </diagram>
</mxfile>
